<?xml version="1.0" standalone="no"?>
<!DOCTYPE svg PUBLIC "-//W3C//DTD SVG 20010904//EN"
 "http://www.w3.org/TR/2001/REC-SVG-20010904/DTD/svg10.dtd">
<svg version="1.0" xmlns="http://www.w3.org/2000/svg"
 width="1173.000000pt" height="1173.000000pt" viewBox="0 0 1173.000000 1173.000000"
 preserveAspectRatio="xMidYMid meet">
<metadata>
Created by potrace 1.14, written by Peter Selinger 2001-2017
</metadata>
<g transform="translate(0.000000,1173.000000) scale(0.100000,-0.100000)"
fill="#000000" stroke="none">
<path d="M10 5874 c0 -3214 3 -5844 8 -5845 4 0 2636 -1 5850 -2 l5842 -2 0
5846 0 5847 -5850 0 -5850 0 0 -5844z m11150 -1 l0 -5293 -37 -1 c-49 0
-10534 0 -10550 0 -10 1 -13 1067 -13 5294 l0 5294 5300 0 5300 0 0 -5294z"/>
<path d="M5540 9804 c-301 -31 -624 -145 -955 -337 -79 -46 -228 -144 -296
-197 -25 -19 -60 -46 -79 -60 -91 -69 -343 -313 -385 -374 -11 -16 -28 -36
-37 -45 -10 -8 -18 -19 -18 -24 0 -5 -6 -14 -12 -21 -7 -8 -19 -22 -26 -32
-19 -30 -76 -118 -91 -145 -17 -28 -95 -182 -97 -189 0 -3 -5 -16 -11 -30 -24
-55 -36 -85 -37 -90 -1 -3 -4 -9 -7 -15 -6 -10 -33 -85 -34 -95 0 -3 -6 -18
-12 -35 -14 -33 -53 -178 -58 -212 -2 -11 -6 -30 -9 -41 -8 -23 -14 -51 -22
-101 -3 -18 -8 -43 -10 -55 -4 -20 -9 -54 -19 -136 -24 -185 -24 -468 1 -655
7 -55 16 -122 19 -150 3 -27 8 -68 11 -89 4 -21 8 -53 10 -70 2 -17 5 -51 8
-76 6 -55 42 -243 55 -288 9 -31 2 -62 -19 -82 -13 -12 -40 -60 -34 -60 4 0 2
-6 -4 -13 -11 -13 -135 -249 -134 -254 1 -2 -10 -27 -23 -57 -14 -31 -27 -67
-31 -81 -3 -14 -10 -28 -15 -31 -5 -3 -9 -11 -9 -19 0 -8 -5 -26 -11 -42 -6
-15 -10 -30 -11 -33 0 -3 -4 -11 -10 -17 -6 -7 -7 -13 -3 -13 4 0 3 -6 -3 -12
-10 -14 -26 -75 -20 -81 2 -2 -2 -10 -9 -18 -6 -8 -15 -28 -18 -44 -8 -40 -13
-60 -15 -60 -2 0 -7 -20 -15 -59 -3 -16 -8 -33 -11 -38 -3 -4 -7 -17 -10 -28
-2 -11 -6 -29 -9 -40 -3 -11 -7 -29 -10 -40 -3 -11 -7 -29 -10 -40 -3 -11 -7
-29 -10 -41 -2 -11 -6 -28 -9 -37 -3 -9 -8 -30 -11 -47 -8 -46 -14 -75 -19
-93 -3 -9 -8 -37 -11 -62 -4 -24 -8 -47 -10 -51 -4 -6 -13 -53 -20 -99 -2 -14
-6 -40 -9 -57 -10 -53 -14 -85 -21 -138 -3 -27 -8 -66 -10 -85 -27 -216 -26
-559 4 -720 29 -160 66 -273 129 -395 45 -88 132 -229 143 -233 5 -2 9 -8 9
-14 0 -6 8 -18 18 -27 11 -9 21 -21 23 -27 4 -13 124 -149 180 -204 46 -45
152 -138 181 -158 13 -9 28 -20 33 -24 39 -31 106 -78 135 -94 19 -10 37 -21
40 -24 7 -8 229 -115 265 -128 24 -9 77 -24 128 -38 4 -1 8 -2 10 -4 3 -2 21
-6 67 -14 19 -3 46 -8 60 -12 39 -10 281 -12 336 -4 146 24 243 49 382 99 175
63 378 158 557 261 39 22 80 46 93 52 12 6 22 15 22 20 0 4 9 8 19 8 11 0 21
3 23 8 2 4 41 32 88 62 79 51 236 160 270 187 8 7 62 49 120 94 58 46 110 88
116 93 6 6 37 34 69 61 57 49 72 62 148 134 l36 34 40 -26 c22 -15 45 -27 50
-27 5 0 11 -3 13 -8 4 -10 226 -152 238 -152 4 0 10 -3 12 -7 4 -11 86 -63 98
-63 5 0 10 -4 10 -9 0 -5 16 -17 36 -27 20 -11 44 -23 55 -29 10 -5 19 -13 19
-17 0 -5 4 -8 9 -8 5 0 37 -18 70 -40 33 -22 64 -40 70 -40 5 0 11 -3 13 -7 4
-11 86 -63 98 -63 5 0 10 -3 10 -8 0 -4 17 -16 38 -27 20 -11 43 -26 50 -32 7
-7 19 -13 27 -13 7 0 15 -4 17 -8 4 -10 194 -130 266 -168 17 -10 32 -22 32
-26 0 -5 5 -6 10 -3 6 3 10 1 10 -4 0 -6 7 -11 15 -11 8 0 15 -4 15 -8 0 -5
18 -17 40 -27 22 -10 40 -21 40 -25 0 -4 8 -10 18 -14 9 -3 31 -15 47 -26 17
-11 38 -23 48 -26 9 -4 17 -10 17 -15 0 -5 4 -9 9 -9 6 0 30 -13 54 -30 25
-16 50 -30 56 -30 6 0 11 -4 11 -9 0 -5 8 -11 18 -15 17 -5 52 -26 62 -36 12
-12 112 -70 121 -70 5 0 9 -4 9 -10 0 -5 5 -10 11 -10 6 0 25 -10 42 -22 48
-35 138 -88 148 -88 5 0 9 -4 9 -10 0 -5 11 -12 25 -16 14 -3 25 -9 25 -13 0
-3 9 -12 21 -19 18 -12 23 -10 40 9 10 12 19 26 19 31 0 5 5 14 10 21 20 23
70 102 70 110 0 4 5 13 10 20 19 21 80 121 86 139 3 10 9 18 14 18 4 0 10 8
14 18 6 20 25 50 44 71 12 12 4 20 -50 55 -104 67 -221 136 -229 136 -4 0 -9
3 -11 8 -4 10 -137 92 -149 92 -5 0 -9 4 -9 10 0 5 -11 12 -25 16 -14 3 -25
10 -25 15 0 5 -7 9 -15 9 -8 0 -15 5 -15 10 0 6 -5 10 -11 10 -6 0 -30 13 -54
30 -24 17 -48 30 -54 30 -6 0 -11 5 -11 10 0 6 -5 10 -11 10 -6 0 -25 10 -42
23 -42 30 -69 45 -89 53 -10 3 -18 10 -18 14 0 4 -11 11 -25 14 -14 4 -25 11
-25 16 0 6 -7 10 -15 10 -8 0 -15 5 -15 10 0 6 -5 10 -11 10 -6 0 -30 14 -54
30 -24 17 -46 30 -49 30 -3 0 -34 19 -68 42 -120 80 -134 88 -145 88 -6 0 -13
3 -15 8 -4 10 -86 62 -98 62 -5 0 -10 5 -10 10 0 6 -5 10 -10 10 -6 0 -37 18
-69 40 -32 22 -64 40 -70 40 -6 0 -11 5 -11 10 0 6 -7 10 -15 10 -8 0 -15 4
-15 9 0 5 -8 11 -17 15 -21 7 -50 25 -76 48 -11 10 -24 15 -29 12 -4 -3 -8 0
-8 5 0 6 -6 11 -14 11 -8 0 -16 3 -18 8 -3 8 -84 62 -93 62 -3 0 -11 5 -18 11
-23 20 -149 99 -158 99 -5 0 -9 3 -9 8 0 7 -30 25 -62 38 -10 3 -18 10 -18 15
0 5 -7 9 -15 9 -8 0 -15 3 -15 6 0 10 42 77 62 98 10 11 18 25 18 32 0 7 3 14
8 16 8 3 112 163 112 172 0 3 18 34 40 68 22 35 40 69 40 76 0 6 5 12 12 12 6
0 8 3 5 7 -4 3 -2 12 3 18 11 13 138 259 141 273 1 4 9 23 17 42 9 19 15 38
14 43 -1 4 3 7 8 7 5 0 9 3 8 8 -1 4 6 22 15 40 10 17 15 32 12 32 -4 0 0 12
9 28 23 43 41 89 86 212 23 63 47 129 53 145 6 17 12 32 13 35 0 3 3 12 7 20
6 14 56 175 61 195 2 6 6 17 9 25 4 8 8 26 11 40 2 14 9 37 15 53 6 15 8 27 6
27 -3 0 2 17 9 38 8 20 24 78 35 127 12 50 24 101 28 115 3 14 7 30 9 35 1 6
5 24 8 40 3 17 8 41 11 55 10 46 17 85 21 105 2 11 6 34 9 50 17 89 35 196 40
244 4 30 8 62 10 72 2 10 6 46 10 81 3 35 8 79 10 98 41 346 52 1035 20 1285
-2 17 -7 64 -10 105 -4 41 -9 83 -11 94 -2 11 -8 56 -14 100 -6 45 -16 101
-21 126 -6 25 -12 56 -14 70 -22 157 -133 480 -210 612 -79 134 -223 302 -323
378 -19 14 -40 31 -47 38 -8 6 -18 12 -24 12 -6 0 -11 4 -11 8 0 5 -16 17 -35
28 -19 10 -35 22 -35 27 0 4 -4 5 -10 2 -5 -3 -10 -2 -10 3 0 5 -39 29 -87 53
-49 24 -89 47 -91 52 -2 4 -12 7 -23 7 -10 0 -19 5 -19 10 0 5 -3 9 -7 8 -7
-1 -24 5 -93 35 -14 6 -28 11 -32 12 -5 2 -9 3 -10 5 -2 1 -10 3 -18 5 -8 2
-45 15 -82 29 -38 13 -68 22 -68 19 0 -3 -7 0 -15 7 -8 7 -15 10 -15 6 0 -3
-16 0 -36 9 -19 8 -38 14 -42 14 -4 -1 -9 0 -12 1 -7 2 -29 7 -69 15 -19 3
-37 7 -40 9 -3 2 -22 7 -41 10 -19 3 -44 7 -55 10 -230 46 -555 62 -775 40z
m430 -549 c41 -3 86 -7 100 -10 14 -2 43 -6 65 -10 22 -3 54 -8 70 -11 17 -3
37 -6 45 -8 13 -2 125 -27 140 -31 111 -29 221 -68 318 -111 40 -18 74 -32 75
-31 1 1 15 -8 31 -20 16 -13 33 -23 38 -23 5 0 14 -5 21 -10 7 -6 37 -27 67
-47 110 -73 215 -195 273 -316 28 -59 90 -236 101 -292 34 -168 56 -289 61
-335 3 -30 8 -69 11 -85 3 -17 7 -55 9 -85 2 -30 7 -107 11 -170 13 -211 7
-679 -11 -860 -2 -19 -6 -71 -10 -116 -3 -45 -8 -92 -10 -105 -2 -13 -6 -49
-10 -80 -3 -31 -7 -66 -9 -76 -3 -11 -7 -44 -11 -73 -4 -29 -9 -62 -11 -74 -2
-11 -6 -36 -9 -56 -3 -20 -8 -47 -11 -60 -2 -14 -6 -37 -9 -52 -2 -15 -6 -35
-9 -45 -3 -10 -7 -29 -10 -43 -3 -14 -7 -36 -11 -50 -3 -14 -7 -34 -9 -45 -2
-11 -12 -49 -21 -85 -9 -36 -18 -72 -20 -80 -2 -8 -8 -35 -15 -60 -7 -25 -14
-52 -15 -60 -2 -8 -4 -16 -5 -17 -2 -2 -3 -6 -4 -10 -8 -31 -30 -102 -47 -155
-11 -35 -22 -70 -24 -78 -2 -8 -4 -16 -5 -17 -2 -2 -4 -7 -5 -13 -1 -5 -4 -12
-5 -15 -1 -3 -4 -9 -5 -15 -1 -5 -3 -11 -5 -12 -1 -2 -3 -10 -5 -18 -2 -8 -18
-51 -35 -95 -18 -44 -33 -84 -34 -90 -2 -5 -6 -17 -9 -25 -9 -22 -30 -74 -32
-80 -4 -13 -46 -111 -72 -168 -9 -20 -17 -39 -17 -42 -2 -13 -122 -245 -128
-248 -5 -2 -6 -8 -2 -13 3 -5 0 -9 -6 -9 -6 0 -8 -4 -5 -10 3 -5 3 -10 -2 -10
-4 0 -24 -31 -43 -68 -19 -37 -38 -69 -41 -72 -10 -7 -48 -72 -55 -92 -4 -10
-10 -18 -15 -18 -5 0 -9 -7 -9 -15 0 -8 -4 -15 -8 -15 -5 0 -18 -17 -29 -38
-27 -47 -65 -92 -79 -92 -6 0 -24 11 -40 25 -16 14 -34 25 -41 25 -6 0 -13 3
-15 8 -5 10 -97 72 -108 72 -6 0 -10 5 -10 10 0 6 -7 10 -15 10 -8 0 -15 5
-15 10 0 6 -6 10 -14 10 -8 0 -16 4 -18 8 -1 4 -50 39 -108 77 -58 39 -107 72
-110 76 -3 3 -21 15 -40 27 -20 11 -49 32 -65 46 -17 14 -36 26 -42 26 -7 0
-13 5 -13 10 0 6 -5 10 -10 10 -10 0 -22 8 -55 38 -7 6 -18 12 -23 12 -6 0
-12 4 -14 8 -1 5 -32 28 -68 52 -36 24 -66 47 -68 52 -2 4 -8 8 -14 8 -5 0
-16 6 -23 13 -31 27 -44 37 -50 37 -4 0 -13 6 -20 13 -33 29 -45 37 -54 37 -5
0 -11 3 -13 8 -4 11 -168 132 -178 132 -4 0 -10 4 -12 8 -1 4 -43 39 -93 77
-49 38 -95 74 -101 80 -6 5 -23 19 -38 30 -16 11 -33 25 -40 30 -6 6 -36 30
-66 55 -30 25 -61 52 -70 60 -9 8 -35 31 -59 50 -136 110 -380 354 -486 485
-21 28 -42 52 -45 55 -3 3 -19 26 -35 52 -17 27 -33 48 -37 48 -5 0 -8 4 -8 9
0 4 -19 41 -41 80 l-42 72 19 34 c10 19 22 35 26 35 5 0 8 6 8 14 0 8 3 16 8
18 4 2 30 35 57 73 27 39 54 75 60 81 5 6 21 27 35 47 14 20 28 37 33 37 4 0
7 5 7 10 0 6 8 18 18 28 9 11 24 28 32 38 100 128 269 300 376 385 124 98 346
236 548 340 36 19 66 37 66 41 0 4 -29 60 -63 125 -35 65 -90 168 -122 228
-31 61 -61 114 -65 118 -15 16 -327 -157 -525 -291 -172 -117 -277 -204 -425
-353 -82 -83 -114 -118 -172 -191 -64 -78 -77 -92 -78 -80 0 17 0 18 -10 53
-26 89 -30 479 -6 604 2 11 7 40 11 65 7 43 9 56 20 110 3 14 7 37 10 52 3 15
9 38 15 52 5 15 8 26 5 26 -2 0 3 16 11 35 8 19 12 35 9 35 -4 0 -3 6 2 13 4
6 8 14 9 17 0 3 4 14 8 25 4 11 12 31 16 45 4 14 12 34 16 45 4 11 8 22 9 25
0 3 9 23 19 45 39 85 61 130 67 135 3 3 12 20 20 38 8 17 17 32 21 32 5 0 8 6
8 14 0 8 6 21 13 28 6 7 32 40 57 73 88 119 197 228 335 335 39 30 72 57 75
60 6 7 185 124 240 157 36 22 209 109 270 136 136 61 336 114 461 123 46 4 85
7 87 9 4 3 197 -3 282 -10z m-2093 -3836 c154 -177 456 -470 567 -548 11 -8
27 -22 36 -30 9 -9 36 -32 60 -51 24 -19 48 -40 54 -45 6 -6 29 -24 51 -40 21
-17 47 -37 56 -45 9 -8 28 -24 43 -34 15 -11 36 -27 46 -35 10 -9 28 -23 40
-31 12 -8 32 -23 43 -32 36 -29 40 -32 97 -73 30 -22 57 -43 58 -47 2 -5 8 -8
13 -8 6 0 22 -11 37 -25 15 -14 32 -25 38 -25 7 0 14 -7 18 -15 3 -8 12 -15
21 -15 8 0 15 -3 15 -8 0 -4 18 -18 40 -32 22 -14 40 -28 40 -32 0 -5 5 -8 11
-8 6 0 25 -11 43 -25 41 -33 46 -37 81 -59 16 -11 38 -28 49 -38 11 -10 26
-18 33 -18 7 0 13 -4 13 -10 0 -5 7 -10 15 -10 8 0 15 -4 15 -8 0 -5 16 -17
35 -28 19 -10 35 -22 35 -26 0 -5 7 -8 15 -8 8 0 15 -4 15 -10 0 -5 7 -10 15
-10 8 0 15 -3 15 -7 0 -5 21 -21 48 -38 26 -16 49 -32 52 -35 13 -14 70 -50
80 -50 5 0 10 -4 10 -10 0 -5 7 -10 15 -10 8 0 15 -4 15 -10 0 -5 7 -10 15
-10 8 0 15 -4 15 -10 0 -5 7 -10 15 -10 8 0 15 -4 15 -10 0 -5 6 -10 14 -10 8
0 16 -3 18 -7 4 -10 83 -64 120 -82 l26 -13 -23 -22 c-92 -85 -155 -138 -264
-221 -36 -27 -68 -52 -71 -55 -3 -3 -21 -16 -40 -30 -19 -13 -39 -28 -45 -32
-5 -5 -32 -23 -60 -40 -27 -18 -52 -35 -55 -38 -3 -3 -41 -27 -85 -54 -311
-191 -561 -308 -785 -367 -123 -32 -298 -32 -384 0 -14 6 -26 8 -26 6 0 -7
-117 45 -175 77 -27 15 -62 33 -77 39 -16 6 -28 15 -28 20 0 5 -6 9 -14 9 -8
0 -16 4 -18 8 -1 4 -21 21 -43 37 -56 42 -89 71 -154 136 -207 206 -318 409
-347 636 -15 110 -9 368 11 553 8 69 24 179 30 200 2 8 6 31 9 50 3 19 8 46
11 60 3 14 7 36 10 50 3 14 7 36 10 50 16 78 19 95 20 100 1 3 4 14 8 25 3 11
9 31 11 45 13 59 36 150 56 220 12 41 23 82 25 90 2 8 8 27 14 43 6 15 8 27 5
27 -4 0 -1 6 5 13 6 8 12 22 14 33 4 19 7 29 30 89 7 17 12 32 13 35 0 3 6 18
12 33 7 16 12 30 12 33 0 3 7 16 16 29 l16 25 54 -70 c29 -38 66 -84 81 -101z"/>
</g>
</svg>
